<mxfile host="Electron" modified="2024-10-15T02:19:00.911Z" agent="Mozilla/5.0 (Windows NT 10.0; Win64; x64) AppleWebKit/537.36 (KHTML, like Gecko) draw.io/24.1.0 Chrome/120.0.6099.109 Electron/28.1.0 Safari/537.36" etag="gedxODCPAufjKraE1KkH" version="24.1.0" type="device">
  <diagram name="Page-1" id="7PCkgrwTx1QPcPamawuj">
    <mxGraphModel dx="975" dy="1780" grid="1" gridSize="10" guides="1" tooltips="1" connect="1" arrows="1" fold="1" page="1" pageScale="1" pageWidth="850" pageHeight="1100" math="0" shadow="0">
      <root>
        <mxCell id="0" />
        <mxCell id="1" parent="0" />
        <mxCell id="JVlOdzkgMxFJpT2q-gd3-9" value="Pet owner" style="swimlane;whiteSpace=wrap;html=1;" vertex="1" parent="1">
          <mxGeometry x="50" y="230" width="160" height="350" as="geometry" />
        </mxCell>
        <mxCell id="JVlOdzkgMxFJpT2q-gd3-10" value="Name" style="text;html=1;align=center;verticalAlign=middle;resizable=0;points=[];autosize=1;strokeColor=none;fillColor=none;" vertex="1" parent="JVlOdzkgMxFJpT2q-gd3-9">
          <mxGeometry x="60" y="20" width="60" height="30" as="geometry" />
        </mxCell>
        <mxCell id="JVlOdzkgMxFJpT2q-gd3-11" value="Email" style="text;html=1;align=center;verticalAlign=middle;resizable=0;points=[];autosize=1;strokeColor=none;fillColor=none;" vertex="1" parent="JVlOdzkgMxFJpT2q-gd3-9">
          <mxGeometry x="65" y="50" width="50" height="30" as="geometry" />
        </mxCell>
        <mxCell id="JVlOdzkgMxFJpT2q-gd3-14" value="Breed&amp;nbsp;" style="text;html=1;align=center;verticalAlign=middle;resizable=0;points=[];autosize=1;strokeColor=none;fillColor=none;" vertex="1" parent="JVlOdzkgMxFJpT2q-gd3-9">
          <mxGeometry x="60" y="108" width="60" height="30" as="geometry" />
        </mxCell>
        <mxCell id="JVlOdzkgMxFJpT2q-gd3-15" value="Gender of pet" style="text;html=1;align=center;verticalAlign=middle;resizable=0;points=[];autosize=1;strokeColor=none;fillColor=none;" vertex="1" parent="JVlOdzkgMxFJpT2q-gd3-9">
          <mxGeometry x="40" y="138" width="100" height="30" as="geometry" />
        </mxCell>
        <mxCell id="JVlOdzkgMxFJpT2q-gd3-16" value="Location" style="text;html=1;align=center;verticalAlign=middle;resizable=0;points=[];autosize=1;strokeColor=none;fillColor=none;" vertex="1" parent="JVlOdzkgMxFJpT2q-gd3-9">
          <mxGeometry x="55" y="168" width="70" height="30" as="geometry" />
        </mxCell>
        <mxCell id="JVlOdzkgMxFJpT2q-gd3-17" value="Color of pet" style="text;html=1;align=center;verticalAlign=middle;resizable=0;points=[];autosize=1;strokeColor=none;fillColor=none;" vertex="1" parent="JVlOdzkgMxFJpT2q-gd3-9">
          <mxGeometry x="50" y="198" width="90" height="30" as="geometry" />
        </mxCell>
        <mxCell id="JVlOdzkgMxFJpT2q-gd3-18" value="Book appointment" style="text;html=1;align=center;verticalAlign=middle;resizable=0;points=[];autosize=1;strokeColor=none;fillColor=none;" vertex="1" parent="JVlOdzkgMxFJpT2q-gd3-9">
          <mxGeometry x="35" y="238" width="120" height="30" as="geometry" />
        </mxCell>
        <mxCell id="JVlOdzkgMxFJpT2q-gd3-20" value="" style="line;strokeWidth=1;rotatable=0;dashed=0;labelPosition=right;align=left;verticalAlign=middle;spacingTop=0;spacingLeft=6;points=[];portConstraint=eastwest;" vertex="1" parent="JVlOdzkgMxFJpT2q-gd3-9">
          <mxGeometry y="228" width="160" height="10" as="geometry" />
        </mxCell>
        <mxCell id="JVlOdzkgMxFJpT2q-gd3-21" value="View calender" style="text;html=1;align=center;verticalAlign=middle;resizable=0;points=[];autosize=1;strokeColor=none;fillColor=none;" vertex="1" parent="JVlOdzkgMxFJpT2q-gd3-9">
          <mxGeometry x="40" y="268" width="100" height="30" as="geometry" />
        </mxCell>
        <mxCell id="JVlOdzkgMxFJpT2q-gd3-22" value="Send emergency alert" style="text;html=1;align=center;verticalAlign=middle;resizable=0;points=[];autosize=1;strokeColor=none;fillColor=none;" vertex="1" parent="JVlOdzkgMxFJpT2q-gd3-9">
          <mxGeometry x="25" y="298" width="140" height="30" as="geometry" />
        </mxCell>
        <mxCell id="JVlOdzkgMxFJpT2q-gd3-13" value="Pet name" style="text;html=1;align=center;verticalAlign=middle;resizable=0;points=[];autosize=1;strokeColor=none;fillColor=none;" vertex="1" parent="1">
          <mxGeometry x="75" y="298" width="70" height="30" as="geometry" />
        </mxCell>
        <mxCell id="JVlOdzkgMxFJpT2q-gd3-23" value="Appointment" style="swimlane;whiteSpace=wrap;html=1;" vertex="1" parent="1">
          <mxGeometry x="320" y="240" width="200" height="260" as="geometry" />
        </mxCell>
        <mxCell id="JVlOdzkgMxFJpT2q-gd3-24" value="" style="line;strokeWidth=1;rotatable=0;dashed=0;labelPosition=right;align=left;verticalAlign=middle;spacingTop=0;spacingLeft=6;points=[];portConstraint=eastwest;" vertex="1" parent="JVlOdzkgMxFJpT2q-gd3-23">
          <mxGeometry y="170" width="200" height="10" as="geometry" />
        </mxCell>
        <mxCell id="JVlOdzkgMxFJpT2q-gd3-28" value="time" style="text;html=1;align=center;verticalAlign=middle;resizable=0;points=[];autosize=1;strokeColor=none;fillColor=none;" vertex="1" parent="JVlOdzkgMxFJpT2q-gd3-23">
          <mxGeometry x="65" y="48" width="50" height="30" as="geometry" />
        </mxCell>
        <mxCell id="JVlOdzkgMxFJpT2q-gd3-25" value="Date" style="text;html=1;align=center;verticalAlign=middle;resizable=0;points=[];autosize=1;strokeColor=none;fillColor=none;" vertex="1" parent="JVlOdzkgMxFJpT2q-gd3-23">
          <mxGeometry x="75" y="18" width="50" height="30" as="geometry" />
        </mxCell>
        <mxCell id="JVlOdzkgMxFJpT2q-gd3-34" value="vet doc ID" style="text;html=1;align=center;verticalAlign=middle;resizable=0;points=[];autosize=1;strokeColor=none;fillColor=none;" vertex="1" parent="JVlOdzkgMxFJpT2q-gd3-23">
          <mxGeometry x="45" y="130" width="80" height="30" as="geometry" />
        </mxCell>
        <mxCell id="JVlOdzkgMxFJpT2q-gd3-33" value="pet owner email" style="text;html=1;align=center;verticalAlign=middle;resizable=0;points=[];autosize=1;strokeColor=none;fillColor=none;" vertex="1" parent="JVlOdzkgMxFJpT2q-gd3-23">
          <mxGeometry x="40" y="100" width="110" height="30" as="geometry" />
        </mxCell>
        <mxCell id="JVlOdzkgMxFJpT2q-gd3-32" value="Pet owner contact" style="text;html=1;align=center;verticalAlign=middle;resizable=0;points=[];autosize=1;strokeColor=none;fillColor=none;" vertex="1" parent="JVlOdzkgMxFJpT2q-gd3-23">
          <mxGeometry x="35" y="70" width="120" height="30" as="geometry" />
        </mxCell>
        <mxCell id="JVlOdzkgMxFJpT2q-gd3-35" value="Set appointment" style="text;html=1;align=center;verticalAlign=middle;resizable=0;points=[];autosize=1;strokeColor=none;fillColor=none;" vertex="1" parent="JVlOdzkgMxFJpT2q-gd3-23">
          <mxGeometry x="30" y="170" width="110" height="30" as="geometry" />
        </mxCell>
        <mxCell id="JVlOdzkgMxFJpT2q-gd3-36" value="Notify vet doc" style="text;html=1;align=center;verticalAlign=middle;resizable=0;points=[];autosize=1;strokeColor=none;fillColor=none;" vertex="1" parent="JVlOdzkgMxFJpT2q-gd3-23">
          <mxGeometry x="40" y="190" width="100" height="30" as="geometry" />
        </mxCell>
        <mxCell id="JVlOdzkgMxFJpT2q-gd3-37" value="Notify owner" style="text;html=1;align=center;verticalAlign=middle;resizable=0;points=[];autosize=1;strokeColor=none;fillColor=none;" vertex="1" parent="JVlOdzkgMxFJpT2q-gd3-23">
          <mxGeometry x="45" y="220" width="90" height="30" as="geometry" />
        </mxCell>
        <mxCell id="JVlOdzkgMxFJpT2q-gd3-38" value="Admn&amp;nbsp;" style="swimlane;whiteSpace=wrap;html=1;" vertex="1" parent="1">
          <mxGeometry x="615" y="200" width="200" height="200" as="geometry" />
        </mxCell>
        <mxCell id="JVlOdzkgMxFJpT2q-gd3-47" value="check reminder" style="text;html=1;align=center;verticalAlign=middle;resizable=0;points=[];autosize=1;strokeColor=none;fillColor=none;" vertex="1" parent="JVlOdzkgMxFJpT2q-gd3-38">
          <mxGeometry x="30" y="160" width="110" height="30" as="geometry" />
        </mxCell>
        <mxCell id="JVlOdzkgMxFJpT2q-gd3-45" value="Notify vet doctor" style="text;html=1;align=center;verticalAlign=middle;resizable=0;points=[];autosize=1;strokeColor=none;fillColor=none;" vertex="1" parent="JVlOdzkgMxFJpT2q-gd3-38">
          <mxGeometry x="30" y="130" width="110" height="30" as="geometry" />
        </mxCell>
        <mxCell id="JVlOdzkgMxFJpT2q-gd3-41" value="" style="endArrow=none;html=1;rounded=0;exitX=0;exitY=0.5;exitDx=0;exitDy=0;" edge="1" parent="JVlOdzkgMxFJpT2q-gd3-38" source="JVlOdzkgMxFJpT2q-gd3-38">
          <mxGeometry width="50" height="50" relative="1" as="geometry">
            <mxPoint x="60.00000000000023" y="104.72454545454536" as="sourcePoint" />
            <mxPoint x="200" y="100" as="targetPoint" />
          </mxGeometry>
        </mxCell>
        <mxCell id="JVlOdzkgMxFJpT2q-gd3-39" value="Name" style="text;html=1;align=center;verticalAlign=middle;resizable=0;points=[];autosize=1;strokeColor=none;fillColor=none;" vertex="1" parent="JVlOdzkgMxFJpT2q-gd3-38">
          <mxGeometry x="60" y="20" width="60" height="30" as="geometry" />
        </mxCell>
        <mxCell id="JVlOdzkgMxFJpT2q-gd3-44" value="Notify owner" style="text;html=1;align=center;verticalAlign=middle;resizable=0;points=[];autosize=1;strokeColor=none;fillColor=none;" vertex="1" parent="JVlOdzkgMxFJpT2q-gd3-38">
          <mxGeometry x="45" y="100" width="90" height="30" as="geometry" />
        </mxCell>
        <mxCell id="JVlOdzkgMxFJpT2q-gd3-40" value="Work ID" style="text;html=1;align=center;verticalAlign=middle;resizable=0;points=[];autosize=1;strokeColor=none;fillColor=none;" vertex="1" parent="1">
          <mxGeometry x="615" y="248" width="70" height="30" as="geometry" />
        </mxCell>
        <mxCell id="JVlOdzkgMxFJpT2q-gd3-49" value="Notification" style="swimlane;whiteSpace=wrap;html=1;" vertex="1" parent="1">
          <mxGeometry x="410" y="-160" width="200" height="200" as="geometry" />
        </mxCell>
        <mxCell id="JVlOdzkgMxFJpT2q-gd3-52" value="Date" style="text;html=1;align=center;verticalAlign=middle;resizable=0;points=[];autosize=1;strokeColor=none;fillColor=none;" vertex="1" parent="JVlOdzkgMxFJpT2q-gd3-49">
          <mxGeometry x="65" y="30" width="50" height="30" as="geometry" />
        </mxCell>
        <mxCell id="JVlOdzkgMxFJpT2q-gd3-55" value="petowne email" style="text;html=1;align=center;verticalAlign=middle;resizable=0;points=[];autosize=1;strokeColor=none;fillColor=none;" vertex="1" parent="JVlOdzkgMxFJpT2q-gd3-49">
          <mxGeometry x="45" y="85" width="100" height="30" as="geometry" />
        </mxCell>
        <mxCell id="JVlOdzkgMxFJpT2q-gd3-56" value="" style="line;strokeWidth=1;rotatable=0;dashed=0;labelPosition=right;align=left;verticalAlign=middle;spacingTop=0;spacingLeft=6;points=[];portConstraint=eastwest;" vertex="1" parent="JVlOdzkgMxFJpT2q-gd3-49">
          <mxGeometry y="115" width="200" height="10" as="geometry" />
        </mxCell>
        <mxCell id="JVlOdzkgMxFJpT2q-gd3-57" value="send reminder" style="text;html=1;align=center;verticalAlign=middle;resizable=0;points=[];autosize=1;strokeColor=none;fillColor=none;" vertex="1" parent="JVlOdzkgMxFJpT2q-gd3-49">
          <mxGeometry x="45" y="125" width="100" height="30" as="geometry" />
        </mxCell>
        <mxCell id="JVlOdzkgMxFJpT2q-gd3-76" value="view notification" style="text;html=1;align=center;verticalAlign=middle;resizable=0;points=[];autosize=1;strokeColor=none;fillColor=none;" vertex="1" parent="JVlOdzkgMxFJpT2q-gd3-49">
          <mxGeometry x="45" y="148" width="110" height="30" as="geometry" />
        </mxCell>
        <mxCell id="JVlOdzkgMxFJpT2q-gd3-54" value="petowner no" style="text;html=1;align=center;verticalAlign=middle;resizable=0;points=[];autosize=1;strokeColor=none;fillColor=none;" vertex="1" parent="JVlOdzkgMxFJpT2q-gd3-49">
          <mxGeometry x="45" y="68" width="90" height="30" as="geometry" />
        </mxCell>
        <mxCell id="JVlOdzkgMxFJpT2q-gd3-53" value="message" style="text;html=1;align=center;verticalAlign=middle;resizable=0;points=[];autosize=1;strokeColor=none;fillColor=none;" vertex="1" parent="JVlOdzkgMxFJpT2q-gd3-49">
          <mxGeometry x="60" y="48" width="70" height="30" as="geometry" />
        </mxCell>
        <mxCell id="JVlOdzkgMxFJpT2q-gd3-50" value="Doctor" style="swimlane;whiteSpace=wrap;html=1;" vertex="1" parent="1">
          <mxGeometry x="880" y="180" width="200" height="280" as="geometry" />
        </mxCell>
        <mxCell id="JVlOdzkgMxFJpT2q-gd3-62" value="work ID" style="text;html=1;align=center;verticalAlign=middle;resizable=0;points=[];autosize=1;strokeColor=none;fillColor=none;" vertex="1" parent="JVlOdzkgMxFJpT2q-gd3-50">
          <mxGeometry x="60" y="108" width="60" height="30" as="geometry" />
        </mxCell>
        <mxCell id="JVlOdzkgMxFJpT2q-gd3-58" value="Nmae" style="text;html=1;align=center;verticalAlign=middle;resizable=0;points=[];autosize=1;strokeColor=none;fillColor=none;" vertex="1" parent="JVlOdzkgMxFJpT2q-gd3-50">
          <mxGeometry x="65" y="18" width="60" height="30" as="geometry" />
        </mxCell>
        <mxCell id="JVlOdzkgMxFJpT2q-gd3-61" value="Availabilty" style="text;html=1;align=center;verticalAlign=middle;resizable=0;points=[];autosize=1;strokeColor=none;fillColor=none;" vertex="1" parent="JVlOdzkgMxFJpT2q-gd3-50">
          <mxGeometry x="55" y="85" width="80" height="30" as="geometry" />
        </mxCell>
        <mxCell id="JVlOdzkgMxFJpT2q-gd3-63" value="" style="line;strokeWidth=1;rotatable=0;dashed=0;labelPosition=right;align=left;verticalAlign=middle;spacingTop=0;spacingLeft=6;points=[];portConstraint=eastwest;" vertex="1" parent="JVlOdzkgMxFJpT2q-gd3-50">
          <mxGeometry y="150" width="200" height="10" as="geometry" />
        </mxCell>
        <mxCell id="JVlOdzkgMxFJpT2q-gd3-64" value="confirm appointment" style="text;html=1;align=center;verticalAlign=middle;resizable=0;points=[];autosize=1;strokeColor=none;fillColor=none;" vertex="1" parent="JVlOdzkgMxFJpT2q-gd3-50">
          <mxGeometry x="25" y="160" width="130" height="30" as="geometry" />
        </mxCell>
        <mxCell id="JVlOdzkgMxFJpT2q-gd3-66" value="view upcoming appointments" style="text;html=1;align=center;verticalAlign=middle;resizable=0;points=[];autosize=1;strokeColor=none;fillColor=none;" vertex="1" parent="JVlOdzkgMxFJpT2q-gd3-50">
          <mxGeometry x="10" y="180" width="180" height="30" as="geometry" />
        </mxCell>
        <mxCell id="JVlOdzkgMxFJpT2q-gd3-67" value="Treats" style="text;html=1;align=center;verticalAlign=middle;resizable=0;points=[];autosize=1;strokeColor=none;fillColor=none;" vertex="1" parent="JVlOdzkgMxFJpT2q-gd3-50">
          <mxGeometry x="60" y="200" width="60" height="30" as="geometry" />
        </mxCell>
        <mxCell id="JVlOdzkgMxFJpT2q-gd3-51" value="Emergency" style="swimlane;whiteSpace=wrap;html=1;" vertex="1" parent="1">
          <mxGeometry x="490" y="650" width="200" height="200" as="geometry" />
        </mxCell>
        <mxCell id="JVlOdzkgMxFJpT2q-gd3-69" value="Petowner detais" style="text;html=1;align=center;verticalAlign=middle;resizable=0;points=[];autosize=1;strokeColor=none;fillColor=none;" vertex="1" parent="JVlOdzkgMxFJpT2q-gd3-51">
          <mxGeometry x="45" y="40" width="110" height="30" as="geometry" />
        </mxCell>
        <mxCell id="JVlOdzkgMxFJpT2q-gd3-68" value="Emergency type" style="text;html=1;align=center;verticalAlign=middle;resizable=0;points=[];autosize=1;strokeColor=none;fillColor=none;" vertex="1" parent="JVlOdzkgMxFJpT2q-gd3-51">
          <mxGeometry x="45" y="18" width="110" height="30" as="geometry" />
        </mxCell>
        <mxCell id="JVlOdzkgMxFJpT2q-gd3-71" value="time sent" style="text;html=1;align=center;verticalAlign=middle;resizable=0;points=[];autosize=1;strokeColor=none;fillColor=none;" vertex="1" parent="JVlOdzkgMxFJpT2q-gd3-51">
          <mxGeometry x="60" y="78" width="70" height="30" as="geometry" />
        </mxCell>
        <mxCell id="JVlOdzkgMxFJpT2q-gd3-72" value="" style="line;strokeWidth=1;rotatable=0;dashed=0;labelPosition=right;align=left;verticalAlign=middle;spacingTop=0;spacingLeft=6;points=[];portConstraint=eastwest;" vertex="1" parent="JVlOdzkgMxFJpT2q-gd3-51">
          <mxGeometry y="108" width="200" height="10" as="geometry" />
        </mxCell>
        <mxCell id="JVlOdzkgMxFJpT2q-gd3-73" value="send emergency alert" style="text;html=1;align=center;verticalAlign=middle;resizable=0;points=[];autosize=1;strokeColor=none;fillColor=none;" vertex="1" parent="JVlOdzkgMxFJpT2q-gd3-51">
          <mxGeometry x="25" y="128" width="140" height="30" as="geometry" />
        </mxCell>
        <mxCell id="JVlOdzkgMxFJpT2q-gd3-90" value="Responds to emergency" style="text;html=1;align=center;verticalAlign=middle;resizable=0;points=[];autosize=1;strokeColor=none;fillColor=none;" vertex="1" parent="JVlOdzkgMxFJpT2q-gd3-51">
          <mxGeometry x="40" y="150" width="150" height="30" as="geometry" />
        </mxCell>
        <mxCell id="JVlOdzkgMxFJpT2q-gd3-59" value="Email" style="text;html=1;align=center;verticalAlign=middle;resizable=0;points=[];autosize=1;strokeColor=none;fillColor=none;" vertex="1" parent="1">
          <mxGeometry x="945" y="228" width="50" height="30" as="geometry" />
        </mxCell>
        <mxCell id="JVlOdzkgMxFJpT2q-gd3-60" value="Specialisation" style="text;html=1;align=center;verticalAlign=middle;resizable=0;points=[];autosize=1;strokeColor=none;fillColor=none;" vertex="1" parent="1">
          <mxGeometry x="940" y="248" width="100" height="30" as="geometry" />
        </mxCell>
        <mxCell id="JVlOdzkgMxFJpT2q-gd3-70" value="vet doctor ID" style="text;html=1;align=center;verticalAlign=middle;resizable=0;points=[];autosize=1;strokeColor=none;fillColor=none;" vertex="1" parent="1">
          <mxGeometry x="540" y="708" width="90" height="30" as="geometry" />
        </mxCell>
        <mxCell id="JVlOdzkgMxFJpT2q-gd3-79" value="" style="endArrow=none;html=1;rounded=0;exitX=0.381;exitY=-0.014;exitDx=0;exitDy=0;exitPerimeter=0;entryX=0;entryY=0.5;entryDx=0;entryDy=0;" edge="1" parent="1" source="JVlOdzkgMxFJpT2q-gd3-9" target="JVlOdzkgMxFJpT2q-gd3-49">
          <mxGeometry width="50" height="50" relative="1" as="geometry">
            <mxPoint x="110" y="200" as="sourcePoint" />
            <mxPoint x="111" y="-20" as="targetPoint" />
            <Array as="points">
              <mxPoint x="110" y="-50" />
            </Array>
          </mxGeometry>
        </mxCell>
        <mxCell id="JVlOdzkgMxFJpT2q-gd3-81" value="" style="endArrow=none;html=1;rounded=0;" edge="1" parent="1">
          <mxGeometry width="50" height="50" relative="1" as="geometry">
            <mxPoint x="210" y="380" as="sourcePoint" />
            <mxPoint x="320" y="380" as="targetPoint" />
          </mxGeometry>
        </mxCell>
        <mxCell id="JVlOdzkgMxFJpT2q-gd3-83" value="" style="endArrow=none;html=1;rounded=0;entryX=0;entryY=0.75;entryDx=0;entryDy=0;" edge="1" parent="1" target="JVlOdzkgMxFJpT2q-gd3-38">
          <mxGeometry width="50" height="50" relative="1" as="geometry">
            <mxPoint x="520" y="350" as="sourcePoint" />
            <mxPoint x="450" y="130" as="targetPoint" />
          </mxGeometry>
        </mxCell>
        <mxCell id="JVlOdzkgMxFJpT2q-gd3-84" value="" style="endArrow=none;html=1;rounded=0;" edge="1" parent="1">
          <mxGeometry width="50" height="50" relative="1" as="geometry">
            <mxPoint x="810" y="280" as="sourcePoint" />
            <mxPoint x="880" y="280" as="targetPoint" />
          </mxGeometry>
        </mxCell>
        <mxCell id="JVlOdzkgMxFJpT2q-gd3-85" value="" style="endArrow=none;html=1;rounded=0;exitX=0.419;exitY=0.001;exitDx=0;exitDy=0;exitPerimeter=0;" edge="1" parent="1" source="JVlOdzkgMxFJpT2q-gd3-51">
          <mxGeometry width="50" height="50" relative="1" as="geometry">
            <mxPoint x="580" y="520" as="sourcePoint" />
            <mxPoint x="680" y="400" as="targetPoint" />
          </mxGeometry>
        </mxCell>
        <mxCell id="JVlOdzkgMxFJpT2q-gd3-86" value="" style="endArrow=none;html=1;rounded=0;" edge="1" parent="1">
          <mxGeometry width="50" height="50" relative="1" as="geometry">
            <mxPoint x="690" y="760" as="sourcePoint" />
            <mxPoint x="970" y="460" as="targetPoint" />
            <Array as="points">
              <mxPoint x="970" y="760" />
            </Array>
          </mxGeometry>
        </mxCell>
        <mxCell id="JVlOdzkgMxFJpT2q-gd3-87" value="" style="endArrow=none;html=1;rounded=0;" edge="1" parent="1">
          <mxGeometry width="50" height="50" relative="1" as="geometry">
            <mxPoint x="120" y="580" as="sourcePoint" />
            <mxPoint x="480" y="800" as="targetPoint" />
            <Array as="points">
              <mxPoint x="120" y="800" />
            </Array>
          </mxGeometry>
        </mxCell>
        <mxCell id="JVlOdzkgMxFJpT2q-gd3-88" value="" style="endArrow=none;html=1;rounded=0;entryX=0.25;entryY=0;entryDx=0;entryDy=0;exitX=0.5;exitY=1;exitDx=0;exitDy=0;" edge="1" parent="1" source="JVlOdzkgMxFJpT2q-gd3-49" target="JVlOdzkgMxFJpT2q-gd3-38">
          <mxGeometry width="50" height="50" relative="1" as="geometry">
            <mxPoint x="520" y="50" as="sourcePoint" />
            <mxPoint x="640" y="60" as="targetPoint" />
          </mxGeometry>
        </mxCell>
        <mxCell id="JVlOdzkgMxFJpT2q-gd3-89" value="" style="endArrow=none;html=1;rounded=0;entryX=1;entryY=0.5;entryDx=0;entryDy=0;exitX=0.75;exitY=0;exitDx=0;exitDy=0;" edge="1" parent="1" source="JVlOdzkgMxFJpT2q-gd3-50" target="JVlOdzkgMxFJpT2q-gd3-49">
          <mxGeometry width="50" height="50" relative="1" as="geometry">
            <mxPoint x="1010" y="170" as="sourcePoint" />
            <mxPoint x="640" y="60" as="targetPoint" />
            <Array as="points">
              <mxPoint x="1030" y="-60" />
            </Array>
          </mxGeometry>
        </mxCell>
        <mxCell id="JVlOdzkgMxFJpT2q-gd3-91" value="&lt;b&gt;&lt;font style=&quot;font-size: 27px;&quot;&gt;CLASS DIAGRAM&lt;/font&gt;&lt;/b&gt;" style="text;html=1;align=center;verticalAlign=middle;resizable=0;points=[];autosize=1;strokeColor=none;fillColor=none;" vertex="1" parent="1">
          <mxGeometry x="315" y="-392" width="250" height="50" as="geometry" />
        </mxCell>
      </root>
    </mxGraphModel>
  </diagram>
</mxfile>
